PathFileType	4	(X/Y/Z)	Patient4_TMGait_0pt5_01_left_13.trc.trc
DataRate	CameraRate	NumFrames	NumMarkers	Units	OrigDataRate	OrigDataStartFrame	OrigNumFrames
74.866310160428	74.866310160428	4	33	mm	74.866310160428	53	       141
Frame#	Time	L.ASIS			Sacral			L.Shoulder			Chest			R.Shoulder			Neck			R.ASIS			R.Thigh.Superior			R.Thigh.Lateral			R.Thigh.Inferior			R.Patella			L.Thigh.Superior			L.Thigh.Lateral			L.Thigh.Inferior			L.Patella			L.Shank.Superior			L.Shank.Lateral			L.Shank.Inferior			R.Shank.Superior			R.Shank.Lateral			R.Shank.Inferior			R.Heel			R.Midfoot.Superior			R.Midfoot.Lateral			R.Toe			L.Heel			L.Midfoot.Lateral			L.Midfoot.Superior			L.Toe			L.Elbow			L.Wrist			R.Elbow			R.Wrist			
		X1	Y1	Z1	X2	Y2	Z2	X3	Y3	Z3	X4	Y4	Z4	X5	Y5	Z5	X6	Y6	Z6	X7	Y7	Z7	X8	Y8	Z8	X9	Y9	Z9	X10	Y10	Z10	X11	Y11	Z11	X12	Y12	Z12	X13	Y13	Z13	X14	Y14	Z14	X15	Y15	Z15	X16	Y16	Z16	X17	Y17	Z17	X18	Y18	Z18	X19	Y19	Z19	X20	Y20	Z20	X21	Y21	Z21	X22	Y22	Z22	X23	Y23	Z23	X24	Y24	Z24	X25	Y25	Z25	X26	Y26	Z26	X27	Y27	Z27	X28	Y28	Z28	X29	Y29	Z29	X30	Y30	Z30	X31	Y31	Z31	X32	Y32	Z32	X33	Y33	Z33	

53	18.024571428571	779.017036177648	963.083015700436	279.855940756862	564.018890060337	1009.812837324094	437.744150380623	734.395650954665	1437.490309310989	255.784805943041	840.185092999342	1366.020654826963	414.717317318578	760.052928353732	1439.501401643606	591.226052073874	738.363678059573	1499.360210672391	406.972299063514	788.331211529592	942.784818494507	554.063334232008	853.816145226327	756.195825001498	528.617405814216	794.552102786782	639.734326958750	596.760637821223	881.631315427535	590.710910860587	520.690349172349	885.777063564909	476.812345857160	541.537736752546	828.869008338063	751.904226181291	313.985637252204	739.537275134013	636.513858776123	258.805853803665	820.879288622832	559.072964079750	326.017078508056	820.039998507146	488.846544804324	338.438901816141	793.138614540004	417.604958144686	330.630623892955	705.258190816895	302.598591748747	280.480666592535	752.414735529539	193.110852076239	355.654985436858	805.003373760982	408.597067799860	546.875133629548	680.637909690061	375.559447457277	604.215560921685	661.835730508855	267.321047379239	555.151499861145	459.384190661286	218.490112326423	518.254786614093	620.871485874934	150.810203127145	571.584438668779	510.478700830348	162.294014357623	599.850717890785	675.502960497076	37.321316137496	614.052004809518	621.676520146673	38.095996619759	398.617010184677	696.400129077683	35.027079418538	318.330133030163	779.801189309103	95.709319688437	345.433564203386	908.347288609323	42.199901826118	318.276448040958	727.091428918645	1086.404779287516	122.508017308571	896.057291825586	886.253576967459	114.461988456352	785.679307455845	1085.991077790033	695.343448298733	943.421406028197	880.227793479648	671.031040925696	
54	18.037928571429	778.706986456993	963.351344122169	279.042917675874	562.674306665207	1010.260367020431	436.024235462112	735.506696451779	1437.906299476914	255.304268571047	839.992073071829	1365.906789728472	414.884239941128	758.852402742884	1439.214524590606	590.980936424217	738.761428535495	1499.605032408523	406.639390707875	786.592238977825	943.456505786322	553.544705406354	855.392502653493	759.688997702727	527.636391488815	798.946969171600	642.244565157585	596.109223576559	886.988874200254	594.995305931910	519.946295525961	893.761043786002	480.971473580868	540.763711768161	826.464748201765	751.090216444674	313.100124745052	735.878350659659	636.500297904419	258.078381678254	816.318313313231	558.345281674184	325.349522149645	814.756012824298	488.275340127954	337.968028616710	787.739253403062	417.310706367852	330.146493972347	699.450783599506	302.569193182343	280.075359054023	746.136501043069	192.988962606321	355.427729620603	813.718952547664	411.566509176745	546.087933021496	689.654479964202	377.059938382913	603.209308835271	672.109289403464	268.652622276205	554.238686627851	470.341908285232	217.553184796507	517.330447544589	632.412010976353	151.279841602211	570.114308803050	522.112441936907	161.584747168442	598.669378971023	688.383927356952	38.099999585286	612.367957413059	614.902482170975	38.148985819403	398.563670033590	689.658782547983	35.024004544886	318.278740624979	773.090892374393	95.676515936071	345.356009078855	901.613522973753	42.088680365749	318.224573378754	732.865971374199	1087.555407171426	120.189529148121	908.510063994283	893.303130992184	111.798089734053	776.054705025902	1085.482890891569	696.242299126331	918.017730948697	867.495794259493	676.802486369678	
55	18.051285714286	778.490224654930	963.648086605335	278.400256065809	561.396692143905	1010.718782872301	434.461687799966	736.711460404306	1438.321195340938	254.950011093736	839.841725852659	1365.795931599486	415.195851020097	757.667867592821	1438.923318825774	590.851238614466	739.194223234515	1499.848496126329	406.432930005052	784.929734346455	944.180981604401	553.214480639478	856.730625312957	763.142949028175	526.852748685139	802.964054171955	644.834417962956	595.667714325606	891.810460947059	599.263490913395	519.374804991465	901.199178884318	485.335222791868	540.212547352500	823.977689350383	750.252609299225	312.409068953501	732.156211897409	636.500358572677	257.450572520342	811.631615943328	557.620414621557	324.786619622249	809.324122105131	487.721156327262	337.572457544797	782.233497765088	417.041958139493	329.719518410158	693.567438617873	302.547779988436	279.714603433273	739.819305548121	192.878850145857	355.214901464410	822.330091822130	414.497826172070	545.546145238393	698.919183746054	377.655298935764	602.536854131719	683.340869428187	268.996036373347	553.652958738964	482.558933098358	214.041148418575	516.979486988764	645.802268997815	150.588194088587	568.947568170413	535.592902751098	158.717025622241	597.928280797238	704.133392624262	38.463267020014	610.753409175226	608.126048382258	38.208331574696	398.518061454159	682.918411600604	35.023335368698	318.232129104792	766.385163363730	95.641719440321	345.281179452957	894.881929991089	41.960160287126	318.177112349247	738.445935774572	1088.785882489905	118.116592714028	920.562867541190	900.646758288332	109.390742060827	765.986509134683	1085.247246799756	697.234869081266	891.967902084762	856.824687088409	682.236117168474	
56	18.064642857143	778.361956977945	963.949942246363	277.938016010452	560.215877871354	1011.161607668783	433.066016906575	738.000108065096	1438.719642942561	254.725538899310	839.733085359583	1365.684126011562	415.654382777101	756.492623494169	1438.628999701966	590.842172439179	739.649833668601	1500.078329843167	406.350980608495	783.345200891130	944.917868170796	553.055450125491	857.830817890527	766.483798743969	526.244349316020	806.605207111119	647.428720271143	595.429716988091	896.071656718842	603.406939092603	518.945456496869	908.028474424562	489.809784927861	539.875119858439	821.429126001460	749.393346845318	311.924348453107	728.393266564555	636.515796418818	256.913355305879	806.833464810841	556.897985561813	324.324670281603	803.755817705742	487.183389819471	337.246525963396	776.632469812391	416.793377745992	329.345829308439	687.621789932742	302.530542941685	279.393385184211	733.469919704136	192.777511503002	355.017748055957	830.784386704785	417.328420790061	545.255332934925	708.422960420232	377.335298138618	602.237594575995	695.501159148852	268.369456923499	553.428305966089	496.081715477124	208.106574395168	517.238141439113	660.998365905215	148.805145036489	568.168610205798	550.900613210752	153.852135216204	597.691084833196	722.587262648760	38.387908556311	609.322295046575	601.353908507309	38.270222066018	398.479375156889	676.182159329444	35.025051043759	318.190508901431	759.684610836046	95.606939280791	345.210766348249	888.155419956103	41.821144382477	318.134691778555	743.822330755777	1090.076600342680	116.263286488893	932.190553283081	908.251871599271	107.244788092369	755.430747672753	1085.298032441453	698.301183417403	865.578670650253	848.209918580832	687.278970180442	
